<?xml version="1.0" encoding="UTF-8" standalone="no"?>
<svg
   xmlns:dc="http://purl.org/dc/elements/1.1/"
   xmlns:cc="http://creativecommons.org/ns#"
   xmlns:rdf="http://www.w3.org/1999/02/22-rdf-syntax-ns#"
   xmlns:svg="http://www.w3.org/2000/svg"
   xmlns="http://www.w3.org/2000/svg"
   xmlns:sodipodi="http://sodipodi.sourceforge.net/DTD/sodipodi-0.dtd"
   xmlns:inkscape="http://www.inkscape.org/namespaces/inkscape"
   width="2000"
   height="2000"
   viewBox="0 0 529.16665 529.16668"
   version="1.1"
   id="svg8"
   inkscape:export-filename="D:\Users\grigo\Google Drive\CV\cv2\images\ceib.png"
   inkscape:export-xdpi="95.999992"
   inkscape:export-ydpi="95.999992"
   inkscape:version="1.0.1 (3bc2e813f5, 2020-09-07)"
   sodipodi:docname="ceib.svg">
  <defs
     id="defs2" />
  <sodipodi:namedview
     id="base"
     pagecolor="#ffffff"
     bordercolor="#666666"
     borderopacity="1.0"
     inkscape:pageopacity="0.0"
     inkscape:pageshadow="2"
     inkscape:zoom="0.35"
     inkscape:cx="400"
     inkscape:cy="1017.1429"
     inkscape:document-units="px"
     inkscape:current-layer="layer1"
     inkscape:document-rotation="0"
     showgrid="false"
     units="px"
     inkscape:window-width="1920"
     inkscape:window-height="1017"
     inkscape:window-x="-8"
     inkscape:window-y="-8"
     inkscape:window-maximized="1" />
  <metadata
     id="metadata5">
    <rdf:RDF>
      <cc:Work
         rdf:about="">
        <dc:format>image/svg+xml</dc:format>
        <dc:type
           rdf:resource="http://purl.org/dc/dcmitype/StillImage" />
        <dc:title></dc:title>
      </cc:Work>
    </rdf:RDF>
  </metadata>
  <g
     inkscape:label="Layer 1"
     inkscape:groupmode="layer"
     id="layer1">
    <g
       id="g846"
       transform="matrix(4.1290314,0,0,4.1290314,-100.61475,-181.76999)">
      <path
         id="path170"
         style="fill:#000000;stroke-width:0.264583"
         d="m 112.88328,44.136021 c -4.187,0 -5.01828,0.07383 -6.87917,0.610815 -9.381784,2.707238 -14.976145,9.785587 -16.041913,20.297986 -0.367673,3.626609 -0.02405,7.418157 0.98857,10.912512 2.421287,8.355364 8.955506,14.124945 17.921903,15.824872 1.23949,0.234992 3.26544,0.327914 5.86269,0.26975 4.52519,-0.10133 6.19162,-0.502737 9.7684,-2.354376 3.69142,-1.91099 7.19438,-6.001967 8.12302,-9.485728 0.43713,-1.639911 -0.058,-2.474156 -1.62471,-2.73885 -1.80552,-0.305041 -2.43188,0.139621 -3.4463,2.447914 -1.58869,3.615021 -4.83538,6.441186 -8.71937,7.589716 -2.14929,0.635564 -5.71815,0.579276 -7.83001,-0.123505 -3.18744,-1.060712 -5.53562,-3.933886 -6.70398,-8.203118 -0.59558,-2.176256 -1.06468,-6.023546 -1.07177,-8.788092 l -0.005,-1.785938 h 14.12575 c 13.53396,0 14.15207,-0.02098 14.75052,-0.507463 0.59279,-0.481869 0.62367,-0.660596 0.601,-3.505729 -0.0673,-8.44147 -3.53948,-15.271183 -9.29448,-18.282605 -3.5059,-1.834531 -5.16648,-2.178161 -10.52546,-2.178161 z m -0.0481,3.607531 c 0.1849,0.0021 0.37242,0.009 0.56275,0.02119 4.13838,0.265586 6.86876,3.036649 8.33593,8.460464 0.57203,2.11468 1.07125,5.694878 1.07125,7.681701 v 1.263491 h -9.82369 -9.82369 l 0.18965,-2.922304 c 0.63492,-9.796036 3.75599,-14.571009 9.4878,-14.50454 z" />
      <path
         style="fill:#000000;stroke-width:0.264583"
         d="M 62.215486,91.990301 C 54.308718,90.475392 48.24501,85.61979 45.557685,78.651316 44.205714,75.145544 43.880483,73.177759 43.854361,68.345512 c -0.03005,-5.559732 0.60239,-8.6058 2.657684,-12.800293 2.525271,-5.15363 7.293848,-9.080052 13.067837,-10.759984 2.501117,-0.727697 8.693528,-1.001033 11.936298,-0.526878 3.745989,0.547735 7.411992,2.159418 9.138708,4.017639 0.319013,0.34331 0.897147,1.31689 1.284743,2.163509 0.603612,1.318466 0.690771,1.815528 0.607499,3.464573 -0.123341,2.442493 -1.067308,4.119041 -2.98768,5.306314 -1.161831,0.718306 -1.515224,0.800745 -3.432588,0.800745 -1.859439,0 -2.299695,-0.09539 -3.38522,-0.733504 -2.29866,-1.35123 -3.24246,-3.276833 -3.073312,-6.270352 0.08177,-1.44717 0.263506,-2.056792 0.935318,-3.137511 l 0.833826,-1.341348 -1.237554,-0.193691 c -6.613633,-1.035105 -10.211484,1.262124 -11.943333,7.625815 -0.778492,2.860569 -1.063771,6.073437 -1.064453,11.988091 -0.0011,8.055737 0.816488,12.244641 3.044385,15.601109 1.997078,3.008727 4.687025,4.45938 8.193326,4.418554 4.469531,-0.05204 8.093852,-2.781548 9.932108,-7.479961 0.970185,-2.479701 1.121037,-2.617827 2.859064,-2.617827 1.825871,0 2.517071,0.413107 2.486565,1.486138 -0.0607,2.134722 -2.545919,6.38797 -4.998471,8.554461 -1.745996,1.542343 -3.530669,2.534608 -6.042581,3.359631 -1.820958,0.598083 -2.652639,0.705761 -5.953124,0.77075 -2.110055,0.04155 -4.134118,0.01852 -4.49792,-0.05119 z"
         id="path166" />
      <path
         id="path164"
         style="fill:#ed1c24;fill-opacity:1;stroke-width:0.264583"
         d="m 107.25003,94.295747 c -0.24591,-0.0086 -0.61854,0.02006 -1.17977,0.07286 -0.90951,0.08561 -5.12199,0.297212 -9.361188,0.470257 l -7.708056,0.314713 -0.172082,1.478978 c -0.09487,0.813332 -0.24174,1.913864 -0.326078,2.445848 l -0.15348,0.967387 2.781226,0.091 c 3.290059,0.10776 3.893302,0.43691 3.893302,2.12338 0,0.80407 -5.887022,36.9722 -6.504512,39.9619 -0.200072,0.9687 -6.41345,7.64515 -9.180319,9.86452 -5.374767,4.31122 -9.264227,6.49237 -12.830225,7.19491 -2.69536,0.53101 -3.784404,0.33335 -5.111832,-0.92863 -1.785419,-1.69738 -2.266021,-4.95129 -1.316199,-8.91263 0.892144,-3.72078 2.3089,-7.21501 4.540809,-11.19984 2.236226,-3.99253 6.29468,-10.14151 8.844938,-13.40125 1.415322,-1.80907 1.434549,-1.85672 0.946195,-2.34507 -0.701146,-0.70115 -2.677367,-1.03791 -3.222025,-0.54881 -0.267144,0.2399 -1.019074,0.37518 -2.085662,0.37518 -1.223462,0 -1.903211,0.14589 -2.551782,0.54673 -1.561454,0.96503 -6.897121,1.13825 -9.101769,0.29559 -1.016736,-0.38861 -1.641039,-1.22965 -1.541508,-2.07636 0.07534,-0.64093 -0.09795,-0.87189 -1.214914,-1.61954 -1.05945,-0.70915 -1.365001,-0.80841 -1.635043,-0.53072 -0.498078,0.5122 -4.297298,7.62485 -5.765022,10.79263 -1.67391,3.61279 -3.663643,9.66073 -4.43952,13.49375 -0.52755,2.60621 -0.614042,3.80183 -0.600998,8.33438 0.01746,6.06071 0.362759,7.87714 2.212784,11.6427 2.531904,5.15345 6.120006,8.27291 10.193176,8.86199 4.838883,0.69981 11.114482,-1.70132 18.90324,-7.23264 2.663598,-1.89159 6.76288,-5.79196 10.422618,-9.9167 1.47498,-1.66239 2.72039,-2.90637 2.76779,-2.76418 0.0474,0.1422 -0.453655,3.48288 -1.113626,7.42332 -0.659971,3.94044 -1.199928,7.29092 -1.199928,7.44606 0,0.17947 0.893945,0.28216 2.457731,0.28216 h 2.457733 l 2.860289,-2.38125 c 1.573207,-1.30969 2.9119,-2.38125 2.974496,-2.38125 0.0626,0 0.476324,0.41269 0.919324,0.91725 1.065273,1.21328 3.599531,2.88568 5.385197,3.55379 3.15504,1.18044 8.27657,1.18836 12.71086,0.0196 2.77268,-0.73078 6.62729,-2.56815 8.86095,-4.22403 2.14822,-1.59254 5.06904,-4.61952 6.38514,-6.61717 4.43312,-6.72881 6.27715,-16.18455 4.54081,-23.28282 -1.39804,-5.71529 -5.89775,-10.43268 -11.45253,-12.0065 -5.6716,-1.60691 -12.23979,-0.80802 -17.3638,2.11202 -1.12264,0.63976 -2.11501,1.16323 -2.20503,1.16323 -0.09,0 0.93607,-6.51867 2.27996,-14.48593 1.3439,-7.96727 2.44985,-14.707838 2.45773,-14.979454 0.008,-0.279339 -0.0495,-0.397041 -0.4594,-0.411345 z m -33.232596,1.33377 c -2.217274,0.02442 -3.878416,0.623499 -6.155697,2.146639 -2.512224,1.680276 -3.84665,3.212574 -7.09104,8.140074 -4.520681,6.8659 -4.553852,6.96547 -2.380731,7.21041 0.952555,0.10737 1.457825,0.016 2.140953,-0.38706 0.491725,-0.29012 1.369777,-0.54486 1.951302,-0.56637 0.994627,-0.0368 1.066665,0.0121 1.21853,0.82217 0.224163,1.19578 1.570329,3.00426 2.088245,2.80552 0.22302,-0.0856 1.54199,0.0491 2.931086,0.2992 1.837602,0.33087 2.719173,0.62492 3.235978,1.08004 0.805289,0.70917 0.952167,0.74409 1.623158,0.38499 0.264528,-0.14157 1.357852,-0.39321 2.429825,-0.55914 2.422432,-0.37497 4.159745,-1.23641 5.799648,-2.87631 2.481659,-2.48167 3.723166,-6.15968 3.151743,-9.33793 -0.661339,-3.67836 -2.72705,-6.437408 -6.108671,-8.159711 -1.381368,-0.703548 -2.078646,-0.880964 -3.846793,-0.978752 -0.342894,-0.01897 -0.670782,-0.02726 -0.987536,-0.02376 z m 40.532406,28.093893 c 2.89727,0.0447 5.14147,1.41816 6.41925,4.01371 0.7439,1.51108 0.87584,2.09211 0.98392,4.33669 0.1488,3.09006 -0.19816,6.32849 -1.42162,13.26534 -1.06018,6.0111 -1.91308,9.19657 -3.15226,11.77396 -1.3414,2.78999 -4.19078,5.43541 -7.00578,6.50502 -1.54507,0.58709 -4.01632,0.81332 -5.50095,0.50333 -2.48274,-0.51838 -5.21465,-2.65824 -6.541721,-5.12372 l -0.52865,-0.98185 2.351791,-14.07718 c 2.34413,-14.03032 2.35477,-14.08074 3.175,-14.96342 1.70199,-1.83156 5.12822,-3.96183 7.53856,-4.68757 1.31484,-0.3959 2.54875,-0.58182 3.68246,-0.56431 z" />
    </g>
  </g>
</svg>
