<?xml version="1.0" encoding="UTF-8" standalone="no"?>
<!-- Created with Inkscape (http://www.inkscape.org/) -->

<svg
   width="1000"
   height="1000"
   viewBox="0 0 264.58333 264.58333"
   version="1.1"
   id="svg5"
   xml:space="preserve"
   inkscape:version="1.2 (dc2aedaf03, 2022-05-15)"
   sodipodi:docname="skyloom.svg"
   inkscape:export-filename="skyloom.png"
   inkscape:export-xdpi="96"
   inkscape:export-ydpi="96"
   xmlns:inkscape="http://www.inkscape.org/namespaces/inkscape"
   xmlns:sodipodi="http://sodipodi.sourceforge.net/DTD/sodipodi-0.dtd"
   xmlns="http://www.w3.org/2000/svg"
   xmlns:svg="http://www.w3.org/2000/svg"><sodipodi:namedview
     id="namedview7"
     pagecolor="#505050"
     bordercolor="#eeeeee"
     borderopacity="1"
     inkscape:showpageshadow="0"
     inkscape:pageopacity="0"
     inkscape:pagecheckerboard="0"
     inkscape:deskcolor="#505050"
     inkscape:document-units="mm"
     showgrid="false"
     inkscape:zoom="0.89263468"
     inkscape:cx="166.92159"
     inkscape:cy="561.25984"
     inkscape:window-width="3440"
     inkscape:window-height="1369"
     inkscape:window-x="1912"
     inkscape:window-y="-8"
     inkscape:window-maximized="1"
     inkscape:current-layer="layer1" /><defs
     id="defs2" /><g
     inkscape:label="Layer 1"
     inkscape:groupmode="layer"
     id="layer1"><path
       style="fill:#000000;stroke-width:1.92495"
       d="m 134.55872,217.10641 c -0.0281,-17.73366 0.54057,-32.24294 1.27323,-32.24294 0.73242,0 7.16396,3.46485 14.29225,7.69964 l 12.96049,7.69972 -12.0147,20.69335 c -6.60802,11.38131 -13.01321,22.42579 -14.23367,24.54323 -1.74187,3.022 -2.23162,-3.08382 -2.2776,-28.393 z m -19.78929,7.56242 c -7.14637,-12.38712 -12.9768,-23.16243 -12.95653,-23.94519 0.0474,-1.83316 25.01562,-16.47369 26.15371,-15.33569 0.47216,0.47291 0.61985,14.57164 0.32741,31.33113 l -0.53112,30.47186 z m -29.892078,-51.8311 c -7.474624,-12.96645 -13.276117,-23.88945 -12.892227,-24.27337 0.71196,-0.71227 50.631285,27.68744 53.510185,30.44236 1.18421,1.13312 -23.59535,17.40647 -26.505089,17.40647 -0.28758,0 -6.638248,-10.60894 -14.112869,-23.57546 z m 66.555908,16.24638 c -7.09693,-3.98717 -13.42719,-7.773 -14.06729,-8.413 -0.92418,-0.92421 18.2281,-12.59338 55.73156,-33.95651 0.99629,-0.56748 0.0218,1.93678 -2.16151,5.5651 -2.18509,3.62831 -8.89776,15.04262 -14.91705,25.3652 -6.01933,10.32254 -11.11019,18.75033 -11.31312,18.72842 -0.20304,-0.0218 -6.17556,-3.30209 -13.27259,-7.28921 z m -53.024189,-30.67692 -29.35381,-16.85514 29.14181,-0.53258 c 16.027999,-0.29319 29.489069,-0.18559 29.913509,0.23861 0.42417,0.42415 0.51948,8.24908 0.21179,17.388 l -0.5595,16.61629 z m 36.091129,-0.49328 v -17.32457 h 30.26504 c 26.06062,0 29.73755,0.36307 26.46806,2.61094 -5.02927,3.4583 -54.93667,32.0382 -55.94634,32.0382 -0.4329,0 -0.78676,-7.79604 -0.78676,-17.32457 z M 71.038862,135.29577 c 0.05176,-1.20001 50.517008,-30.85251 55.965948,-32.88462 0.94629,-0.35286 1.72054,7.22659 1.72054,16.84335 v 17.48492 H 99.851081 c -15.880848,0 -28.846335,-0.6497 -28.812219,-1.44365 z M 134.5002,119.41486 c 0,-9.52847 0.45617,-17.32456 1.01448,-17.32456 1.5765,0 58.65896,32.93314 58.65896,33.84272 0,0.44381 -13.42654,0.8064 -29.83671,0.8064 H 134.5002 Z m -67.010551,10.42516 c 15.65793,-28.03971 29.267502,-50.629779 30.198762,-50.125954 0.66008,0.357226 7.553409,4.3194 15.318469,8.805149 l 14.11833,8.155792 -18.9307,10.976923 c -35.339161,20.49122 -41.690704,23.95345 -40.704861,22.18809 z m 99.740341,-15.4118 c -15.34836,-8.88456 -28.12292,-16.811128 -28.38798,-17.614535 -0.42052,-1.275393 24.006,-16.094096 27.44661,-16.650728 1.41849,-0.229248 30.4566,48.890873 29.46124,49.836223 -0.33758,0.32087 -13.17147,-6.6863 -28.51987,-15.57096 z M 61.352051,94.818819 c 0,-19.292535 0.357001,-35.077407 0.793359,-35.077407 0.682517,0 27.808934,15.128619 29.737826,16.585005 0.638508,0.482364 -22.173529,41.032853 -27.999976,49.772873 -2.137964,3.20706 -2.531209,-1.6527 -2.531209,-31.280471 z M 186.15222,102.8855 C 175.5366,84.46265 172.02416,76.781926 173.64005,75.52525 178.5572,71.701 200.47721,59.628503 201.19687,60.348158 c 0.42198,0.421984 0.5304,15.928727 0.24079,34.459032 l -0.52675,33.69132 z m 19.6297,-9.93871 c -0.028,-18.262937 0.45034,-33.205378 1.0724,-33.205378 1.87924,0 25.71202,13.670271 26.74408,15.340124 0.52822,0.854277 -4.50302,10.962204 -11.17994,22.46207 -6.67696,11.499864 -13.13844,22.641284 -14.35896,24.758724 -1.73994,3.01863 -2.23175,-3.31955 -2.27758,-29.35554 z M 46.675896,106.8939 C 41.250822,97.370248 34.923802,86.395347 32.615844,82.505349 l -4.196272,-7.072858 13.727747,-8.017435 c 7.550259,-4.409604 14.115885,-7.629262 14.590268,-7.154915 0.474356,0.474348 0.623943,15.057096 0.332343,32.406027 L 56.539692,124.20964 Z M 113.8058,83.841486 c -7.67639,-4.255902 -13.73998,-8.64857 -13.47467,-9.761582 0.26543,-1.11297 6.54602,-12.692593 13.95707,-25.732528 l 13.4747,-23.709018 0.5551,17.648893 c 0.30473,9.706874 0.30473,24.768616 0,33.470531 l -0.5551,15.821611 z m 20.6944,-25.023634 c 0,-18.549082 0.36815,-33.725583 0.8182,-33.725583 1.22617,0 28.05605,47.324556 28.05605,49.487534 0,1.027515 -1.94901,2.821133 -4.3311,3.985754 -2.38219,1.164725 -8.87892,4.786209 -14.43718,8.047782 L 134.5002,92.543436 Z M 12.530681,48.070836 C 5.2653156,35.317724 -0.36516808,24.580965 0.01850202,24.211355 0.99616362,23.269647 52.531001,53.473552 53.120706,55.333952 53.560139,56.720222 32.184617,69.702078 27.665394,70.793534 26.606672,71.048986 19.796053,60.824034 12.530681,48.070836 Z M 78.050738,63.206099 C 70.824804,58.918697 65.627442,54.724366 66.501036,53.885427 68.586411,51.882805 124.87542,19.479202 124.87542,20.281333 c 0,3.009118 -29.034179,50.127338 -31.046321,50.383667 -1.452173,0.18465 -8.552449,-3.171498 -15.778361,-7.458901 z M 153.72553,46.747943 c -7.71557,-13.498719 -14.42714,-25.26499 -14.91465,-26.14728 -0.48745,-0.88229 3.75707,1.088959 9.43239,4.380573 5.67536,3.291607 19.61596,11.328193 30.97913,17.859026 l 20.66031,11.874272 -13.923,8.201772 c -7.65765,4.510979 -14.88664,8.240725 -16.06446,8.288294 -1.17773,0.05081 -8.45415,-10.95793 -16.16972,-24.456657 z m 69.51954,17.28689 c -6.77326,-3.949449 -12.23796,-7.918839 -12.1438,-8.820842 0.16594,-1.588159 52.56917,-32.519687 53.46892,-31.560512 0.70136,0.747544 -26.89726,47.642135 -28.0136,47.599933 -0.54783,-0.0218 -6.53825,-3.26906 -13.31152,-7.218579 z M 61.352051,34.938446 v -17.54596 h 28.874273 c 15.880846,0 28.874246,0.313559 28.874246,0.697703 0,0.384145 -11.04439,7.030159 -24.543113,14.769804 C 81.058735,40.599637 68.065302,48.181348 65.683185,49.708249 L 61.352051,52.48441 Z M 172.45256,34.800271 143.99417,18.355092 172.23916,17.821077 c 15.53475,-0.293817 28.59293,-0.186208 29.0181,0.238608 0.42563,0.424879 0.52166,8.065935 0.21334,16.979415 l -0.5595,16.206256 z M 29.159327,35.001136 C 15.158864,26.78321 3.1038565,19.459335 2.3704212,18.725886 1.6369885,17.992469 13.741583,17.392392 29.269521,17.392392 h 28.232624 v 16.362082 c 0,8.999108 -0.649695,16.322979 -1.443705,16.275201 C 55.264395,49.978866 43.159793,43.219071 29.159327,35.001136 Z M 205.72335,33.960394 V 17.392392 h 28.29681 c 17.14423,0 27.57606,0.693337 26.46808,1.759777 -2.23238,2.148287 -47.52804,28.599274 -51.74638,30.217979 -2.59725,0.996664 -3.01851,-1.153686 -3.01851,-15.409754 z"
       id="path179" /></g></svg>
