<?xml version="1.0" encoding="UTF-8" standalone="no"?>
<svg
   xmlns:dc="http://purl.org/dc/elements/1.1/"
   xmlns:cc="http://creativecommons.org/ns#"
   xmlns:rdf="http://www.w3.org/1999/02/22-rdf-syntax-ns#"
   xmlns:svg="http://www.w3.org/2000/svg"
   xmlns="http://www.w3.org/2000/svg"
   xmlns:sodipodi="http://sodipodi.sourceforge.net/DTD/sodipodi-0.dtd"
   xmlns:inkscape="http://www.inkscape.org/namespaces/inkscape"
   width="1000"
   height="1000"
   viewBox="0 0 264.58333 264.58334"
   version="1.1"
   id="svg8"
   inkscape:version="1.0.1 (3bc2e813f5, 2020-09-07)"
   sodipodi:docname="cit.svg"
   inkscape:export-filename="D:\Users\grigo\Google Drive\CV\cv2\images\cit.png"
   inkscape:export-xdpi="95.999992"
   inkscape:export-ydpi="95.999992">
  <defs
     id="defs2" />
  <sodipodi:namedview
     id="base"
     pagecolor="#ffffff"
     bordercolor="#666666"
     borderopacity="1.0"
     inkscape:pageopacity="0.0"
     inkscape:pageshadow="2"
     inkscape:zoom="0.49497475"
     inkscape:cx="206.6137"
     inkscape:cy="589.96797"
     inkscape:document-units="px"
     inkscape:current-layer="layer1"
     inkscape:document-rotation="0"
     showgrid="false"
     inkscape:snap-global="false"
     units="px"
     inkscape:window-width="1920"
     inkscape:window-height="1017"
     inkscape:window-x="-8"
     inkscape:window-y="-8"
     inkscape:window-maximized="1" />
  <metadata
     id="metadata5">
    <rdf:RDF>
      <cc:Work
         rdf:about="">
        <dc:format>image/svg+xml</dc:format>
        <dc:type
           rdf:resource="http://purl.org/dc/dcmitype/StillImage" />
        <dc:title></dc:title>
      </cc:Work>
    </rdf:RDF>
  </metadata>
  <g
     inkscape:label="Layer 1"
     inkscape:groupmode="layer"
     id="layer1">
    <path
       style="fill:#3e81b6;stroke-width:0.0846667"
       d="m 57.848502,264.32164 c 0.05821,-0.0235 0.153458,-0.0235 0.211666,0 0.05821,0.0235 0.01058,0.0427 -0.105833,0.0427 -0.116417,0 -0.164042,-0.0192 -0.105833,-0.0427 z m 1.947333,0 c 0.05821,-0.0235 0.153459,-0.0235 0.211667,0 0.05821,0.0235 0.01058,0.0427 -0.105833,0.0427 -0.116417,0 -0.164042,-0.0192 -0.105834,-0.0427 z M 38.883168,242.89418 c 0.337608,-0.0161 0.890058,-0.0161 1.227667,0 0.337608,0.0161 0.06138,0.0292 -0.613834,0.0292 -0.675216,0 -0.951441,-0.0131 -0.613833,-0.0292 z m -1.942042,-0.0796 c 0.06112,-0.0245 0.134144,-0.0214 0.162278,0.007 0.02813,0.0281 -0.02187,0.0481 -0.111125,0.0445 -0.09863,-0.004 -0.118694,-0.0241 -0.05115,-0.0512 z m 5.244042,0.002 c 0.05821,-0.0235 0.153458,-0.0235 0.211667,0 0.05821,0.0235 0.01058,0.0427 -0.105834,0.0427 -0.116416,0 -0.164041,-0.0192 -0.105833,-0.0427 z m 12.107334,-0.51533 c 0.896408,-0.0137 2.363258,-0.0137 3.259666,0 0.896409,0.0137 0.162984,0.0249 -1.629833,0.0249 -1.792817,0 -2.526242,-0.0112 -1.629833,-0.0249 z m 21.468953,-5e-5 c 1.24894,-0.0132 3.26824,-0.0132 4.48734,3e-5 1.2191,0.0132 0.19724,0.024 -2.27079,0.024 -2.46804,-1e-5 -3.46548,-0.0108 -2.21655,-0.024 z m -26.661282,-2.18022 c 6.9e-5,-0.97789 0.01239,-1.36636 0.02739,-0.86323 0.01499,0.50313 0.01494,1.30323 -8.5e-5,1.77801 -0.01506,0.47476 -0.02733,0.0631 -0.02726,-0.91478 z m -19.689305,0.14817 c -0.105314,-0.13428 -0.10232,-0.13729 0.03197,-0.032 0.08149,0.0639 0.148167,0.13059 0.148167,0.14817 0,0.0697 -0.06953,0.0248 -0.180133,-0.1162 z M 187.72717,239.8478 c 0.15134,-0.0188 0.399,-0.0188 0.55034,0 0.15134,0.0188 0.0275,0.0341 -0.27517,0.0341 -0.30269,0 -0.42652,-0.0154 -0.27517,-0.0341 z M 93.386245,226.78571 c 0,-6.96172 0.01,-9.80969 0.0222,-6.32883 0.0122,3.48085 0.0122,9.17681 0,12.65767 -0.0122,3.48086 -0.0222,0.63288 -0.0222,-6.32884 z m -65.076044,12.3825 c -0.105314,-0.13429 -0.102319,-0.13728 0.03197,-0.032 0.141033,0.11061 0.185884,0.18014 0.1162,0.18014 -0.01758,0 -0.08426,-0.0667 -0.148167,-0.14817 z m 163.671469,-0.1378 c 0,-0.0176 0.0667,-0.0843 0.14816,-0.14817 0.13429,-0.10531 0.13728,-0.10232 0.032,0.032 -0.11061,0.14103 -0.18013,0.18588 -0.18013,0.1162 z M 41.042168,235.27868 c 0.08149,-0.0213 0.214842,-0.0213 0.296333,0 0.08149,0.0213 0.01482,0.0387 -0.148166,0.0387 -0.162984,0 -0.229659,-0.0174 -0.148167,-0.0387 z m 1.486958,-0.0841 c 0.06112,-0.0245 0.134144,-0.0214 0.162278,0.007 0.02813,0.0281 -0.02187,0.0481 -0.111125,0.0445 -0.09863,-0.004 -0.118694,-0.0241 -0.05115,-0.0512 z m 1.016,-0.0847 c 0.06112,-0.0245 0.134144,-0.0214 0.162279,0.007 0.02813,0.0281 -0.02187,0.0482 -0.111125,0.0445 -0.09863,-0.004 -0.118695,-0.0241 -0.05115,-0.0512 z m -8.241608,-8.36654 c 1e-5,-2.93369 0.01064,-4.12157 0.02362,-2.63972 0.01298,1.48186 0.01297,3.88216 -1.8e-5,5.334 -0.01299,1.45184 -0.02361,0.23942 -0.0236,-2.69428 z m 8.749608,-8.31292 c 0.06112,-0.0245 0.134144,-0.0214 0.162279,0.007 0.02813,0.0281 -0.02187,0.0481 -0.111125,0.0445 -0.09863,-0.004 -0.118695,-0.0241 -0.05115,-0.0512 z m -2.291291,-0.16758 c 0.05821,-0.0235 0.153458,-0.0235 0.211666,0 0.05821,0.0235 0.01058,0.0427 -0.105833,0.0427 -0.116417,0 -0.164042,-0.0192 -0.105833,-0.0427 z m 6.6675,-0.28259 c 0.08429,-0.0931 0.172295,-0.16934 0.195578,-0.16934 0.02328,0 -0.02663,0.0762 -0.110911,0.16934 -0.08429,0.0931 -0.172295,0.16933 -0.195579,0.16933 -0.02328,0 0.02663,-0.0762 0.110912,-0.16933 z m -19.769667,-4.00583 c 0,-0.0146 0.123825,-0.1384 0.275166,-0.27517 l 0.275167,-0.24867 -0.248674,0.27517 c -0.231798,0.25649 -0.301659,0.31409 -0.301659,0.24867 z m 8.027458,-3.24859 c 0.06112,-0.0245 0.134144,-0.0215 0.162278,0.007 0.02813,0.0281 -0.02187,0.0481 -0.111125,0.0445 -0.09863,-0.004 -0.118694,-0.0241 -0.05115,-0.0511 z m 5.842,0 c 0.06112,-0.0245 0.134144,-0.0215 0.162278,0.007 0.02813,0.0281 -0.02187,0.0481 -0.111125,0.0445 -0.09863,-0.004 -0.118694,-0.0241 -0.05115,-0.0511 z m -4.618013,-0.0855 c 0.08238,-0.0215 0.196678,-0.0201 0.254,0.003 0.05732,0.0232 -0.01008,0.0408 -0.149778,0.039 -0.1397,-0.002 -0.186601,-0.0207 -0.104222,-0.0422 z m 2.920376,-0.001 c 0.105317,-0.0203 0.257717,-0.0195 0.338666,0.002 0.08095,0.0212 -0.0052,0.0378 -0.191487,0.0368 -0.186267,-9.3e-4 -0.252497,-0.0183 -0.147179,-0.0385 z m 48.275626,-5.76119 -0.29178,-0.3175 0.3175,0.29179 c 0.29552,0.27156 0.35643,0.34322 0.29178,0.34322 -0.0142,0 -0.15703,-0.14289 -0.3175,-0.31751 z m -31.507322,-15.6576 c 0.06112,-0.0245 0.134145,-0.0215 0.162279,0.007 0.02813,0.0281 -0.02187,0.0481 -0.111125,0.0445 -0.09863,-0.004 -0.118695,-0.0241 -0.05115,-0.0512 z m 2.540001,0 c 0.06112,-0.0245 0.134144,-0.0215 0.162278,0.007 0.02813,0.0281 -0.02187,0.0481 -0.111125,0.0445 -0.09863,-0.004 -0.118695,-0.0241 -0.05115,-0.0512 z"
       id="path869"
       sodipodi:nodetypes="ssssssssssssccsccssssssssssssscssccssssscsscssssssssssssssssssccscccccccsssssccsccssssssssssscssccsccccsccccccccccccscssssscsssscss" />
    <g
       id="g892"
       transform="matrix(3.5199026,0,0,3.5199026,-310.85493,-691.75663)">
      <rect
         style="opacity:1;fill:#ffffff;fill-rule:evenodd;stroke:#800000;stroke-width:0.0600867;stroke-linecap:round;stroke-linejoin:round;paint-order:markers stroke fill"
         id="rect885"
         width="66.707069"
         height="32.359783"
         x="92.461075"
         y="218.12135" />
      <path
         style="fill:#b8d1e4;stroke-width:0.0846667"
         d="m 155.59975,256.42889 c 0,-0.0176 0.0667,-0.0842 0.14816,-0.14817 0.13428,-0.1053 0.13728,-0.10231 0.032,0.032 -0.11061,0.14104 -0.18013,0.18588 -0.18013,0.1162 z m -60.079055,-0.49719 -0.16129,-0.1905 0.1905,0.16129 c 0.17902,0.15157 0.22905,0.21971 0.16129,0.21971 -0.0161,0 -0.10179,-0.0857 -0.1905,-0.1905 z m 60.883385,-0.3175 c 0.0843,-0.0931 0.1723,-0.16933 0.19558,-0.16933 0.0233,0 -0.0266,0.0762 -0.11091,0.16933 -0.0843,0.0931 -0.17229,0.16933 -0.19558,0.16933 -0.0233,0 0.0266,-0.0762 0.11091,-0.16933 z m -51.96417,-5.47474 c 0.0582,-0.0235 0.15346,-0.0235 0.21167,0 0.0582,0.0235 0.0106,0.0427 -0.10583,0.0427 -0.11642,0 -0.16405,-0.0192 -0.10584,-0.0427 z m 3.85234,-0.002 c 0.0815,-0.0213 0.21484,-0.0213 0.29633,0 0.0815,0.0213 0.0148,0.0387 -0.14817,0.0387 -0.16298,0 -0.22966,-0.0174 -0.14816,-0.0387 z m 1.397,-0.0824 c 0.0582,-0.0235 0.15344,-0.0235 0.21165,0 0.0582,0.0235 0.0106,0.0427 -0.10583,0.0427 -0.11642,0 -0.16404,-0.0192 -0.10582,-0.0427 z m -13.911835,-3.0131 -0.24868,-0.27515 0.27517,0.24867 c 0.2565,0.23179 0.31409,0.30165 0.24868,0.30165 -0.0146,0 -0.1384,-0.12383 -0.27517,-0.27517 z M 128.46311,232.9238 c 0,-7.89305 0.01,-11.12203 0.0221,-7.1755 0.0122,3.94653 0.0122,10.40447 0,14.351 -0.0122,3.94653 -0.0221,0.71756 -0.0221,-7.1755 z m -22.32986,9.75923 c 0.1979,-0.0178 0.52175,-0.0178 0.71966,0 0.19791,0.0178 0.036,0.0324 -0.35983,0.0324 -0.39582,0 -0.55774,-0.0146 -0.35983,-0.0324 z m 2.70933,-0.0787 c 0.0582,-0.0235 0.15346,-0.0235 0.21167,0 0.0582,0.0235 0.0106,0.0427 -0.10584,0.0427 -0.11641,0 -0.16404,-0.0192 -0.10583,-0.0427 z m 1.19062,-0.0866 c 0.0611,-0.0245 0.13415,-0.0214 0.16228,0.007 0.0281,0.0281 -0.0219,0.0481 -0.11112,0.0445 -0.0986,-0.004 -0.1187,-0.0241 -0.0511,-0.0512 z m 0.84666,-0.0847 c 0.0611,-0.0245 0.13414,-0.0215 0.16229,0.007 0.0281,0.0281 -0.0219,0.0481 -0.11113,0.0445 -0.0986,-0.004 -0.11869,-0.0241 -0.0512,-0.0512 z m -17.418765,-0.33017 c 0.004,-0.0986 0.0241,-0.11868 0.0512,-0.0512 0.0245,0.0611 0.0215,0.13414 -0.007,0.16228 -0.0281,0.0281 -0.0481,-0.0219 -0.0445,-0.11113 z m 9.510275,-0.39511 -0.16129,-0.19049 0.1905,0.16129 c 0.10477,0.0887 0.1905,0.17443 0.1905,0.19049 0,0.0678 -0.0681,0.0177 -0.21971,-0.16129 z m -9.585125,-0.35982 c 0.002,-0.13971 0.0207,-0.1866 0.0422,-0.10422 0.0215,0.0824 0.02,0.19667 -0.003,0.254 -0.0232,0.0573 -0.0408,-0.0101 -0.039,-0.14978 z m 0,-14.56222 c 0.002,-0.1397 0.0207,-0.1866 0.0422,-0.10422 0.0215,0.0824 0.02,0.19668 -0.003,0.254 -0.0232,0.0573 -0.0408,-0.0101 -0.039,-0.14978 z m 9.381505,-0.0688 c 0,-0.0146 0.12382,-0.1384 0.27516,-0.27517 l 0.27517,-0.24867 -0.24868,0.27516 c -0.23179,0.2565 -0.30165,0.31409 -0.30165,0.24868 z m 55.56159,-4.26943 -0.0203,-3.83026 -3.6195,-0.023 -3.61949,-0.023 3.62216,-0.0202 c 2.8347,-0.0158 3.63098,0.003 3.66275,0.0856 0.0223,0.0582 0.0303,1.80128 0.0176,3.8735 l -0.023,3.76766 z m -45.25191,3.47256 c 0.15217,-0.0188 0.38077,-0.0185 0.508,8.6e-4 0.12722,0.0193 0.003,0.0347 -0.27668,0.0343 -0.2794,-5e-4 -0.3835,-0.0163 -0.23132,-0.0351 z m -0.92756,-0.0811 c 0.0611,-0.0245 0.13414,-0.0215 0.16228,0.007 0.0281,0.0281 -0.0219,0.0481 -0.11113,0.0445 -0.0986,-0.004 -0.11869,-0.0241 -0.0512,-0.0512 z m -0.762,-0.0847 c 0.0611,-0.0245 0.13414,-0.0214 0.16228,0.007 0.0281,0.0281 -0.0219,0.0481 -0.11113,0.0445 -0.0986,-0.004 -0.11869,-0.0241 -0.0512,-0.0512 z m -0.84667,-0.0847 c 0.0611,-0.0245 0.13415,-0.0215 0.16228,0.007 0.0281,0.0281 -0.0219,0.0482 -0.11112,0.0445 -0.0986,-0.004 -0.1187,-0.0241 -0.0512,-0.0511 z m -1.19062,-0.0829 c 0.0582,-0.0235 0.15346,-0.0235 0.21167,0 0.0582,0.0235 0.0106,0.0427 -0.10584,0.0427 -0.11641,0 -0.16404,-0.0192 -0.10583,-0.0427 z m -3.81,-0.0847 c 0.0582,-0.0235 0.15346,-0.0235 0.21167,0 0.0582,0.0235 0.0106,0.0427 -0.10584,0.0427 -0.11641,0 -0.16404,-0.0192 -0.10583,-0.0427 z m 2.032,-0.004 c 0.10477,-0.0202 0.27622,-0.0202 0.381,0 0.10477,0.0202 0.019,0.0367 -0.1905,0.0367 -0.20955,0 -0.29528,-0.0165 -0.1905,-0.0367 z m 4.15396,-7.19485 c 0.0611,-0.0245 0.13414,-0.0215 0.16228,0.007 0.0281,0.0281 -0.0219,0.0482 -0.11113,0.0445 -0.0986,-0.004 -0.11869,-0.0241 -0.0511,-0.0511 z m -8.55134,-0.16933 c 0.0611,-0.0245 0.13415,-0.0215 0.16228,0.007 0.0281,0.0281 -0.0219,0.0481 -0.11112,0.0445 -0.0986,-0.004 -0.1187,-0.0241 -0.0511,-0.0511 z m 6.858,0 c 0.0611,-0.0245 0.13415,-0.0215 0.16228,0.007 0.0281,0.0281 -0.0219,0.0481 -0.11112,0.0445 -0.0986,-0.004 -0.1187,-0.0241 -0.0511,-0.0511 z m -5.92666,-0.0847 c 0.0611,-0.0245 0.13414,-0.0215 0.16227,0.007 0.0281,0.0281 -0.0219,0.0481 -0.11112,0.0445 -0.0986,-0.004 -0.11869,-0.0241 -0.0511,-0.0511 z m 4.61065,-8.4e-4 c 0.0824,-0.0215 0.19667,-0.0201 0.25399,0.003 0.0573,0.0232 -0.0101,0.0407 -0.14977,0.039 -0.13971,-0.002 -0.1866,-0.0207 -0.10422,-0.0422 z M 95.147735,212.6563 c 0,-0.0176 0.0667,-0.0843 0.14817,-0.14817 0.13429,-0.10531 0.13728,-0.10232 0.032,0.032 -0.1106,0.14103 -0.18013,0.18588 -0.18013,0.1162 z m 0.67734,-0.67743 c 0,-0.0176 0.0667,-0.0842 0.14816,-0.14816 0.13429,-0.10532 0.13729,-0.10232 0.032,0.032 -0.1106,0.14104 -0.18013,0.18589 -0.18013,0.1162 z"
         id="path875"
         sodipodi:nodetypes="scsssscssssssssssssssssssssscsssssssssssssssccsccccscccssccscssssscsscscccsscssccccscccccccccccsccccscccccccsssssssssssscccccccsccccsccccscccccccscsssscsss" />
      <path
         style="fill:#75a5cc;stroke-width:0.0846667"
         d="m 124.5112,271.64309 c 0.0611,-0.0245 0.13415,-0.0215 0.16228,0.007 0.0281,0.0281 -0.0219,0.0481 -0.11112,0.0445 -0.0986,-0.004 -0.1187,-0.0241 -0.0512,-0.0511 z m 2.54,0 c 0.0611,-0.0245 0.13415,-0.0215 0.16228,0.007 0.0281,0.0281 -0.0219,0.0481 -0.11112,0.0445 -0.0986,-0.004 -0.1187,-0.0241 -0.0511,-0.0511 z m 28.97187,-15.64783 c 0.10938,-0.11642 0.2179,-0.21166 0.24119,-0.21166 0.0233,0 -0.0472,0.0953 -0.15652,0.21166 -0.10937,0.11642 -0.2179,0.21166 -0.24118,0.21166 -0.0233,0 0.0471,-0.0953 0.15651,-0.21166 z m -51.91653,-5.85751 c 0.0611,-0.0245 0.13414,-0.0214 0.16227,0.007 0.0281,0.0281 -0.0219,0.0481 -0.11112,0.0445 -0.0986,-0.004 -0.11869,-0.0241 -0.0511,-0.0512 z m 4.65136,0.002 c 0.0582,-0.0235 0.15346,-0.0235 0.21167,0 0.0582,0.0235 0.0106,0.0427 -0.10583,0.0427 -0.11642,0 -0.16405,-0.0192 -0.10584,-0.0427 z m -5.5827,-0.0864 c 0.0611,-0.0245 0.13415,-0.0215 0.16227,0.007 0.0281,0.0281 -0.0219,0.0481 -0.11112,0.0445 -0.0986,-0.004 -0.1187,-0.0241 -0.0511,-0.0512 z m 6.85799,0 c 0.0611,-0.0245 0.13415,-0.0215 0.16228,0.007 0.0281,0.0281 -0.0219,0.0481 -0.11112,0.0445 -0.0986,-0.004 -0.1187,-0.0241 -0.0511,-0.0512 z m 0.84667,-0.0847 c 0.0611,-0.0245 0.13414,-0.0214 0.16228,0.007 0.0281,0.0281 -0.0219,0.0481 -0.11113,0.0445 -0.0986,-0.004 -0.11869,-0.0241 -0.0512,-0.0512 z m 29.6057,-12.04949 c 0,-6.44948 0.01,-9.08791 0.0223,-5.86317 0.0123,3.22474 0.0123,8.50159 0,11.72634 -0.0123,3.22474 -0.0223,0.58631 -0.0223,-5.86317 z m -12.05714,9.43328 c 0.004,-0.0986 0.0241,-0.1187 0.0512,-0.0512 0.0245,0.0611 0.0214,0.13415 -0.007,0.16228 -0.0281,0.0281 -0.0482,-0.0219 -0.0445,-0.11112 z m 31.84763,-0.37395 c 0,-0.16298 0.0174,-0.22966 0.0387,-0.14816 0.0213,0.0815 0.0213,0.21484 0,0.29633 -0.0213,0.0815 -0.0387,0.0148 -0.0387,-0.14817 z m -44.2638,-3.25966 c 5e-5,-1.1176 0.0121,-1.56309 0.0268,-0.98998 0.0147,0.57311 0.0146,1.48751 -9e-5,2.032 -0.0147,0.54449 -0.0267,0.0756 -0.0267,-1.04202 z m -7.59301,-1.11466 c 0.0582,-0.0235 0.15345,-0.0235 0.21166,0 0.0582,0.0235 0.0106,0.0427 -0.10583,0.0427 -0.11642,0 -0.16404,-0.0192 -0.10583,-0.0427 z m 1.27529,-0.0864 c 0.0611,-0.0245 0.13414,-0.0214 0.16228,0.007 0.0281,0.0281 -0.0219,0.0481 -0.11113,0.0445 -0.0986,-0.004 -0.11869,-0.0241 -0.0512,-0.0512 z m 1.778,-0.16933 c 0.0611,-0.0245 0.13414,-0.0214 0.16228,0.007 0.0281,0.0281 -0.0219,0.0481 -0.11113,0.0445 -0.0986,-0.004 -0.11869,-0.0241 -0.0512,-0.0511 z m -18.096105,-0.66883 c 0.004,-0.0986 0.0241,-0.1187 0.0512,-0.0512 0.0245,0.0611 0.0215,0.13414 -0.007,0.16228 -0.0281,0.0281 -0.0481,-0.0219 -0.0445,-0.11113 z m -0.051,-7.5706 c 0,-3.65549 0.0104,-5.15092 0.0232,-3.32318 0.0127,1.82775 0.0127,4.81859 0,6.64635 -0.0127,1.82774 -0.0232,0.33231 -0.0232,-3.32317 z m 8.863055,5.41866 c 0,-0.11642 0.0192,-0.16405 0.0427,-0.10584 0.0235,0.0582 0.0235,0.15346 0,0.21167 -0.0235,0.0582 -0.0427,0.0106 -0.0427,-0.10583 z m 0,-10.92178 c 0,-0.11642 0.0192,-0.16405 0.0427,-0.10584 0.0235,0.0582 0.0235,0.15346 0,0.21167 -0.0235,0.0582 -0.0427,0.0106 -0.0427,-0.10583 z m 10.46942,-2.68251 c 0.0611,-0.0245 0.13414,-0.0215 0.16228,0.007 0.0281,0.0281 -0.0219,0.0482 -0.11113,0.0445 -0.0986,-0.004 -0.11869,-0.0241 -0.0511,-0.0512 z m -2.45533,-0.254 c 0.0611,-0.0245 0.13414,-0.0215 0.16228,0.007 0.0281,0.0281 -0.0219,0.0482 -0.11113,0.0445 -0.0986,-0.004 -0.11869,-0.0241 -0.0511,-0.0511 z m -1.19063,-0.0829 c 0.0582,-0.0235 0.15346,-0.0235 0.21167,0 0.0582,0.0235 0.0106,0.0427 -0.10583,0.0427 -0.11642,0 -0.16405,-0.0192 -0.10584,-0.0427 z m -2.83633,-0.0908 c 0.22119,-0.0174 0.58314,-0.0174 0.80433,0 0.22119,0.0174 0.0402,0.0317 -0.40216,0.0317 -0.44239,0 -0.62336,-0.0143 -0.40217,-0.0317 z m 54.10048,-4.25575 c 0,-0.163 0.0174,-0.22967 0.0387,-0.14817 0.0213,0.0815 0.0213,0.21483 0,0.29632 -0.0213,0.0815 -0.0387,0.0148 -0.0387,-0.14815 z m -38.43119,-2.68809 c 1.24894,-0.0132 3.26824,-0.0132 4.48733,2e-5 1.2191,0.0132 0.19725,0.024 -2.27079,0.024 -2.46803,-2e-5 -3.46547,-0.0108 -2.21654,-0.024 z m 14.51438,-5e-5 c 2.71251,-0.0124 7.15116,-0.0124 9.86367,0 2.71251,0.0124 0.49318,0.0226 -4.93184,0.0226 -5.42502,0 -7.64434,-0.0102 -4.93183,-0.0226 z m -26.07205,-0.41768 c 0.0611,-0.0245 0.13415,-0.0215 0.16228,0.007 0.0281,0.0281 -0.0219,0.0481 -0.11112,0.0445 -0.0986,-0.004 -0.11869,-0.0241 -0.0512,-0.0511 z m -6.43465,-0.0847 c 0.0611,-0.0245 0.13414,-0.0215 0.16227,0.007 0.0281,0.0281 -0.0219,0.0481 -0.11113,0.0445 -0.0986,-0.004 -0.11869,-0.0241 -0.0511,-0.0511 z m 5.24403,0.002 c 0.0582,-0.0235 0.15346,-0.0235 0.21167,0 0.0582,0.0235 0.0106,0.0427 -0.10584,0.0427 -0.11641,0 -0.16404,-0.0192 -0.10583,-0.0427 z m -3.34046,-0.092 c 0.36302,-0.0159 0.93453,-0.0158 1.27,2.4e-4 0.33548,0.016 0.0385,0.029 -0.66004,0.0289 -0.6985,-9e-5 -0.97298,-0.0132 -0.60996,-0.0291 z m 50.6795,-5.33445 c -0.10532,-0.13428 -0.10232,-0.13727 0.032,-0.032 0.14104,0.1106 0.18589,0.18014 0.1162,0.18014 -0.0176,0 -0.0842,-0.0667 -0.14816,-0.14817 z m -60.864535,-0.40215 c 0.10937,-0.11642 0.2179,-0.21167 0.24118,-0.21167 0.0233,0 -0.0472,0.0953 -0.15651,0.21167 -0.10937,0.11641 -0.2179,0.21166 -0.24119,0.21166 -0.0233,0 0.0471,-0.0953 0.15652,-0.21166 z m 60.017865,-0.44445 c -0.10531,-0.1343 -0.10232,-0.13729 0.032,-0.032 0.14103,0.11061 0.18588,0.18013 0.1162,0.18013 -0.0176,0 -0.0843,-0.0667 -0.14817,-0.14816 z m -28.28375,-15.2346 c 0.0611,-0.0245 0.13415,-0.0215 0.16228,0.007 0.0281,0.0281 -0.0219,0.0481 -0.11112,0.0445 -0.0986,-0.004 -0.11869,-0.0241 -0.0512,-0.0512 z"
         id="path871"
         sodipodi:nodetypes="ccsccccscccssscccsccssssccsccccsccccsccsssscssccsssssssssssssccsccccscccssccssssssssssssccccccccccsssssssssssssssssssssccsccccsccssssccscccssccsssssccsccsscss" />
      <path
         style="fill:#0075b9;stroke-width:0.0846667"
         d="m 124.69641,271.64881 c -1.5536,-0.14148 -3.23725,-0.54465 -4.33932,-1.03913 -0.55394,-0.24854 -22.217235,-12.71646 -23.050355,-13.26623 -2.64134,-1.74298 -4.92142,-5.28825 -5.68737,-8.84321 -0.14613,-0.67823 -0.15463,-1.47107 -0.15463,-14.43365 0,-15.23606 -0.0439,-13.99994 0.56575,-15.91559 0.35138,-1.10404 1.35964,-3.09556 2.07966,-4.10776 0.75525,-1.06175 2.24499,-2.55034 3.15426,-3.15184 1.06933,-0.7074 22.100495,-12.82071 22.986995,-13.23982 1.64205,-0.77629 3.23439,-1.08548 5.588,-1.08505 2.27274,4.2e-4 3.82474,0.28513 5.461,1.00182 0.83814,0.36711 22.82688,13.06954 23.53734,13.59702 0.6432,0.47754 1.91325,1.7629 2.48254,2.51244 1.00288,1.32042 1.85894,2.96843 2.37491,4.57193 0.58688,1.82387 0.5605,1.07774 0.56088,15.86543 3.4e-4,14.88146 0.0331,14.00619 -0.59436,15.92399 -0.92574,2.8297 -2.88553,5.61957 -4.99739,7.11406 -0.70648,0.49996 -22.45407,13.0516 -23.23606,13.41073 -0.85421,0.39229 -1.88808,0.69901 -2.99271,0.88784 -0.9363,0.16007 -2.96878,0.26716 -3.73914,0.19702 z m 13.20123,-7.95265 c 1.53264,-0.29073 3.56531,-1.18264 4.9662,-2.17913 0.89139,-0.63407 1.97994,-1.69166 2.50282,-2.43164 0.69144,-0.97856 11.68257,-19.47447 11.93184,-20.07894 0.92053,-2.2323 1.11252,-5.25966 0.49048,-7.73385 -0.26042,-1.03587 -0.52893,-1.647 -1.43569,-3.26773 -0.4584,-0.81936 -0.85767,-1.55278 -0.88724,-1.62984 -0.0488,-0.12709 0.0847,-0.1401 1.43698,-0.1401 h 1.49072 v -3.85233 -3.85234 l -3.66183,-3.4e-4 -3.66185,-3.3e-4 -2.40017,-4.30486 c -1.32009,-2.36767 -2.58572,-4.55263 -2.81251,-4.85546 -0.22679,-0.30283 -0.77181,-0.89426 -1.21117,-1.31429 -1.99425,-1.90648 -4.79725,-3.22064 -7.19201,-3.37186 -1.65149,-0.10429 -22.37373,-0.35619 -23.00247,-0.27962 -1.92945,0.23497 -4.06717,1.13189 -5.85218,2.45539 -0.7534,0.55861 -1.77575,1.5553 -2.19714,2.14198 -0.15969,0.22234 -1.50955,2.44392 -2.99968,4.93686 -1.49014,2.49293 -2.76649,4.56276 -2.83634,4.5996 -0.0699,0.0369 -0.44867,0.16624 -0.841835,0.28755 -3.23585,0.99837 -5.27418,3.08218 -6.06522,6.20052 -0.34607,1.36428 -0.38829,2.5351 -0.35346,9.8032 0.028,5.84744 0.0516,6.87816 0.17288,7.5402 0.39377,2.15046 1.12462,3.57114 2.51441,4.88767 0.40379,0.3825 1.04044,0.87602 1.41479,1.0967 0.74706,0.4404 2.12177,1.01995 2.780355,1.17213 l 0.42042,0.0971 2.44672,4.39066 c 1.72574,3.09684 2.60693,4.59088 2.99037,5.07012 1.61759,2.02174 4.31431,3.66692 7.01727,4.28102 0.70484,0.16013 1.71592,0.1911 10.82897,0.33167 10.27665,0.15851 13.17102,0.15857 14.00557,2.5e-4 z"
         id="path865" />
      <path
         style="fill:#00569f;stroke-width:0.0846667"
         d="m 123.89208,263.69591 c -9.11305,-0.14056 -10.12414,-0.17154 -10.82897,-0.33166 -1.56949,-0.35658 -3.32631,-1.14663 -4.67993,-2.10456 -0.8392,-0.59388 -2.02998,-1.73044 -2.56014,-2.44355 -0.34278,-0.46108 -5.18444,-9.05861 -5.13151,-9.11222 0.0141,-0.0143 0.42038,0.0498 0.90278,0.14241 1.56101,0.29974 2.5963,0.37972 4.89877,0.37843 3.01523,-0.002 5.66121,-0.26183 8.45714,-0.83148 0.57685,-0.11753 1.06262,-0.21368 1.0795,-0.21368 0.0169,0 0.0307,-1.69803 0.0307,-3.77338 0,-3.55363 -0.009,-3.77086 -0.14816,-3.73035 -0.21446,0.0623 -2.10433,0.36272 -3.2385,0.51485 -2.99389,0.40157 -6.53536,0.56622 -7.68119,0.35712 -1.32439,-0.24169 -2.11455,-0.79102 -2.4963,-1.73549 l -0.19418,-0.48042 -0.026,-5.969 c -0.0284,-6.5061 -0.0218,-6.61682 0.44041,-7.38671 0.34421,-0.57337 0.85257,-0.9494 1.60208,-1.18506 0.5718,-0.17978 0.74505,-0.19077 2.89421,-0.18354 1.7119,0.006 2.71655,0.0536 4.00042,0.1905 2.6128,0.27861 3.22046,0.23019 3.97549,-0.31675 0.5726,-0.41479 0.64753,-0.68258 1.03197,-3.68804 0.19037,-1.48825 0.31793,-2.72974 0.28346,-2.75884 -0.0791,-0.0668 -1.73178,-0.35999 -3.28001,-0.58192 -2.47765,-0.35516 -4.0546,-0.46413 -6.731,-0.46514 -2.63235,-9.9e-4 -3.83477,0.0956 -5.24061,0.42085 -0.29788,0.0689 -0.54932,0.11504 -0.55875,0.10248 -0.0285,-0.038 5.3963,-9.07492 5.70872,-9.50989 0.42138,-0.58668 1.44372,-1.58337 2.19712,-2.14198 1.78505,-1.32352 3.92296,-2.22051 5.85219,-2.45536 0.80419,-0.0979 22.32894,0.19736 23.4187,0.32123 1.88186,0.21392 4.08016,1.15695 5.84171,2.50598 0.80301,0.61497 1.96083,1.82752 2.43102,2.54596 0.35512,0.54261 4.88457,8.62167 4.88457,8.71248 0,0.0226 -4.40055,0.0411 -9.779,0.0411 h -9.77901 v 3.0724 c 0,3.01817 0.003,3.07903 0.1905,3.44895 0.10478,0.2071 0.35411,0.49995 0.55407,0.65077 0.67942,0.51243 0.85817,0.53255 4.73181,0.53255 h 3.4983 v 11.72633 11.72634 h 4.445 4.445 v -11.72634 -11.72633 l 3.02683,0.003 3.02683,0.003 0.84667,1.52842 c 1.0045,1.81336 1.17189,2.17401 1.44925,3.12257 0.73809,2.52413 0.58421,5.76329 -0.38549,8.11485 -0.24927,0.60446 -11.2404,19.10037 -11.93184,20.07893 -0.52288,0.73999 -1.61143,1.79758 -2.50282,2.43164 -1.4009,0.99649 -3.43356,1.88841 -4.9662,2.17915 -0.83455,0.15831 -3.72893,0.15826 -14.00558,-2.6e-4 z m 2.98202,-14.23296 c 0.62028,-0.25335 1.04951,-0.62002 1.3403,-1.14497 l 0.24968,-0.45072 0.0221,-14.6685 0.0221,-14.6685 h -4.44594 -4.44594 v 15.58389 15.58387 l 3.40783,-0.0273 c 3.24978,-0.026 3.42832,-0.0357 3.84986,-0.20781 z"
         id="path863"
         sodipodi:nodetypes="cssssccssscssscssscsssssssssssssssscsssscccccccccssssssccsscccccccsss" />
    </g>
  </g>
</svg>
